<svg xmlns="http://www.w3.org/2000/svg" viewBox="0 0 507.3 192.8"><title>Asset 11</title><g id="Layer_2" data-name="Layer 2"><g id="pil"><path d="M16.69,140.34a163.41,163.41,0,0,0,14.07,9.2.63.63,0,0,0,.64-1.08,162,162,0,0,1-14.08-9.2c-.65-.48-1.28.61-.63,1.08Z" fill="#778886"/><path d="M16.74,151.1c2.87,1.89,5.74,3.76,8.59,5.68,2.41,1.63,3.94,4.05,6.28,5.67.39.28.77-.37.38-.64-2.33-1.62-3.88-4.06-6.29-5.68-2.84-1.92-5.72-3.79-8.58-5.68-.4-.27-.78.38-.38.65Z" fill="#778886"/><path d="M16.36,159.32a37.28,37.28,0,0,1,6.82,4.33c1.7,1.48,2.64,3.63,4.43,4.95.39.29.76-.36.38-.65-1.09-.8-1.69-2.08-2.55-3.09a17.09,17.09,0,0,0-2.59-2.44,42.88,42.88,0,0,0-6.11-3.74c-.43-.23-.81.41-.38.64Z" fill="#778886"/><path d="M16.25,118c5.44-1.74,10.81-3.74,16.2-5.63.76-.26.43-1.47-.33-1.2-5.39,1.89-10.76,3.88-16.21,5.63-.76.24-.43,1.45.34,1.2Z" fill="#778886"/><path d="M28.58,99.3c2.14,0,3.94-1.47,5.74-2.5l8.13-4.66a.37.37,0,0,0-.37-.65l-6.33,3.63c-2.1,1.2-4.69,3.38-7.17,3.43a.38.38,0,0,0,0,.75Z" fill="#778886"/><path d="M38.74,107.8c3.31-2.13,5.57-5.24,8.37-8a38.77,38.77,0,0,1,12-7.81c.44-.19.06-.83-.38-.65a40.16,40.16,0,0,0-10.2,6.16c-3.58,3-6.2,7-10.17,9.6-.4.26,0,.91.38.65Z" fill="#778886"/><path d="M57.71,107c2.75-3,5.52-6,8.26-9.07a21.79,21.79,0,0,0,4.51-6.58c.18-.45-.54-.64-.72-.2-1.27,3.19-3.7,5.57-6,8.06l-6.61,7.26c-.33.36.2.89.53.53Z" fill="#778886"/><path d="M70.85,107.05A248.93,248.93,0,0,1,88.14,88.47c.35-.34-.18-.87-.53-.53a248.93,248.93,0,0,0-17.29,18.58c-.3.36.22.9.53.53Z" fill="#778886"/><path d="M17.51,76.65q7.56-4.71,15-9.53c.4-.26,0-.91-.38-.65q-7.47,4.83-15,9.53c-.41.26,0,.91.38.65Z" fill="#778886"/><path d="M18.59,69.75a1.88,1.88,0,0,0,0-3.75,1.88,1.88,0,0,0,0,3.75Z" fill="#778886"/><path d="M26.17,61.82a1.88,1.88,0,0,0,0-3.75,1.88,1.88,0,0,0,0,3.75Z" fill="#778886"/><path d="M20.66,56.65a1.88,1.88,0,0,0,0-3.75,1.88,1.88,0,0,0,0,3.75Z" fill="#778886"/><path d="M27.9,49.76a1.88,1.88,0,0,0,0-3.75,1.88,1.88,0,0,0,0,3.75Z" fill="#778886"/><path d="M22,42.17a1.88,1.88,0,0,0,0-3.75,1.88,1.88,0,0,0,0,3.75Z" fill="#778886"/><path d="M17.21,47.34a1.88,1.88,0,0,0,0-3.75,1.88,1.88,0,0,0,0,3.75Z" fill="#778886"/><path d="M28.93,36.31a1.88,1.88,0,0,0,0-3.75,1.88,1.88,0,0,0,0,3.75Z" fill="#778886"/><path d="M26.86,70.39a1.88,1.88,0,0,0,0-3.75,1.88,1.88,0,0,0,0,3.75Z" fill="#778886"/><path d="M15.7,144.67c5.39,3.05,13,5.88,15.84,11.72.22.44.86.06.65-.37-3-6-10.58-8.86-16.11-12-.42-.23-.8.41-.38.65Z" fill="#778886"/><path d="M15,155.08c2.75.16,5.57,3.51,8.08,4.8,3.64,1.86,5.9,4.59,8.21,7.92.27.39.92,0,.64-.38-2.37-3.42-4.72-6.26-8.47-8.19-2.8-1.44-5.17-4.71-8.46-4.9-.48,0-.48.72,0,.75Z" fill="#778886"/><path d="M15.07,162.76c3.67-.63,5.59,3.82,8.29,5.49.41.25.79-.4.38-.65-3-1.84-4.74-6.27-8.87-5.56-.47.08-.27.8.2.72Z" fill="#778886"/><path d="M50.11,106.81c5.1-4.4,9.17-10.3,13.49-15.45.3-.37-.22-.9-.53-.53-4.32,5.15-8.39,11-13.49,15.45-.36.32.17.85.53.53Z" fill="#778886"/><path d="M31.14,104.19C34.42,102.34,38,101,41,98.69a53.91,53.91,0,0,0,7.74-7.81c.31-.37-.22-.9-.53-.53a52.52,52.52,0,0,1-7.69,7.73c-3,2.29-6.51,3.63-9.77,5.47-.42.23-.05.88.38.64Z" fill="#778886"/><path d="M65.28,106.23,76.89,92c1.34-1.64,2.72-3.25,4-4.94,2.11-2.82,3.87-8.67,7.56-9.57a.37.37,0,0,0-.2-.72,5.81,5.81,0,0,0-3.74,2.43c-2.21,3-3.42,6.44-5.81,9.42C74.09,94.35,69.4,100,64.75,105.7c-.3.37.23.91.53.53Z" fill="#778886"/><path d="M74.13,137c3.22,0,3.22-5,0-5s-3.22,5,0,5Z" fill="#778886"/><path d="M81.62,127.38c3.22,0,3.22-5,0-5s-3.22,5,0,5Z" fill="#778886"/><path d="M72.92,123.76c3.22,0,3.23-5,0-5s-3.22,5,0,5Z" fill="#778886"/><path d="M82.1,149.12c3.22,0,3.22-5,0-5s-3.22,5,0,5Z" fill="#778886"/><path d="M72.92,152.26c3.22,0,3.23-5,0-5s-3.22,5,0,5Z" fill="#778886"/><path d="M78.48,159.75c3.22,0,3.22-5,0-5s-3.22,5,0,5Z" fill="#778886"/><path d="M84.52,167.72c3.21,0,3.22-5,0-5s-3.23,5,0,5Z" fill="#778886"/><path d="M72.68,169.17c3.22,0,3.22-5,0-5s-3.22,5,0,5Z" fill="#778886"/><path d="M74.2,32.85a60.55,60.55,0,0,1,.13,14.3c-.07.47.65.68.72.2a60.64,60.64,0,0,0-.1-14.5c0-.48-.8-.48-.75,0Z" fill="#778886"/><path d="M16.37,124.72a107.47,107.47,0,0,1,16,2.25c.79.17,1.12-1,.34-1.21a110.9,110.9,0,0,0-16.32-2.29c-.8-.06-.8,1.19,0,1.25Z" fill="#778886"/><path d="M25.38,119.79a.63.63,0,0,0,0-1.25.63.63,0,0,0,0,1.25Z" fill="#778886"/><path d="M20.87,121.89a.63.63,0,0,0,0-1.25.63.63,0,0,0,0,1.25Z" fill="#778886"/><path d="M22.37,118.28a.63.63,0,0,0,0-1.25.63.63,0,0,0,0,1.25Z" fill="#778886"/><path d="M27.48,116.18a.63.63,0,0,0,0-1.25.63.63,0,0,0,0,1.25Z" fill="#778886"/><path d="M29,123.39a.63.63,0,0,0,0-1.25.63.63,0,0,0,0,1.25Z" fill="#778886"/><path d="M26.58,123.39a.63.63,0,0,0,0-1.25.63.63,0,0,0,0,1.25Z" fill="#778886"/><path d="M23.27,124.29a.63.63,0,0,0,0-1.25.63.63,0,0,0,0,1.25Z" fill="#778886"/><path d="M17.86,122.49a.63.63,0,0,0,0-1.25.63.63,0,0,0,0,1.25Z" fill="#778886"/><path d="M19.07,118.59a.63.63,0,0,0,0-1.25.63.63,0,0,0,0,1.25Z" fill="#778886"/><path d="M28.68,118.89a.63.63,0,0,0,0-1.25.63.63,0,0,0,0,1.25Z" fill="#778886"/><path d="M78.65,33.34q-.16,6.57.29,13.12c0,.48.79.49.75,0q-.47-6.55-.29-13.12c0-.49-.73-.49-.75,0Z" fill="#778886"/><path d="M83,33a68.24,68.24,0,0,1-.65,13.09c-.07.47.65.67.72.2A69.53,69.53,0,0,0,83.74,33c0-.48-.77-.49-.75,0Z" fill="#778886"/><path d="M72,119.29q8-.39,15.94-.32a.38.38,0,0,0,0-.75q-8-.06-15.94.32c-.48,0-.48.77,0,.75Z" fill="#778886"/><path d="M73,88.05c.25-2.46,2.81-4.72,4.32-6.58l4-4.88c.3-.37-.23-.91-.53-.53l-5.66,7c-1.27,1.56-2.63,2.94-2.84,5,0,.48.71.47.75,0Z" fill="#778886"/><path d="M72.65,77.92a16.56,16.56,0,0,1,2.56-4c.32-.36-.21-.89-.53-.53A17.26,17.26,0,0,0,72,77.55c-.2.43.45.81.65.37Z" fill="#778886"/><path d="M24.07,94.29a50.56,50.56,0,0,1,7.82-6.71c.4-.27,0-.92-.38-.65a51.43,51.43,0,0,0-8,6.83c-.34.35.19.88.53.53Z" fill="#778886"/><path d="M20.22,89.77l11.12-8.16c.39-.28,0-.93-.38-.64L19.84,89.12c-.38.29,0,.94.38.65Z" fill="#778886"/><path d="M17.66,85.67a38.24,38.24,0,0,0,6.11-5.54c.81-.94,1.52-2,2.35-2.9a12.09,12.09,0,0,1,5.45-3.08c.45-.15.26-.88-.2-.72a12.78,12.78,0,0,0-6.51,4.16A40.11,40.11,0,0,1,17.28,85c-.39.28,0,.93.38.65Z" fill="#778886"/><path d="M16.12,86c2.88,3.78,5.55,8.23,9.18,11.34,3.28,2.81,4.59,6.72,7.61,9.79a.38.38,0,0,0,.53-.53c-2.74-2.79-3.77-6.59-6.71-9.11-3.93-3.38-6.82-7.75-10-11.87-.29-.38-.94,0-.65.38Z" fill="#778886"/><path d="M86.43,78q-8.19-3.53-16.23-7.4c-.43-.21-.81.44-.38.65q8,3.87,16.23,7.39c.44.19.83-.45.38-.64Z" fill="#778886"/><path d="M72.8,48.24A142.17,142.17,0,0,0,87.3,46c.79-.16.46-1.37-.33-1.21A135.81,135.81,0,0,1,72.8,47c-.8.08-.8,1.33,0,1.25Z" fill="#778886"/><text transform="translate(0.5 170.5)" font-size="200" fill="#778886" stroke="#778886" font-family="HUSET">HUSET</text><path d="M117.09,91.14a33.64,33.64,0,0,0,7.08,4.61c2.77,1.25,5.61,2.15,7.94,4.16.37.32.9-.21.53-.53A20.66,20.66,0,0,0,127,96.13a38.94,38.94,0,0,1-9.39-5.52c-.37-.3-.91.23-.53.53Z" fill="#778886"/><path d="M118,116.52l14.9-1.1c.48,0,.48-.79,0-.75l-14.9,1.1c-.48,0-.48.79,0,.75Z" fill="#778886"/><path d="M117.17,109.78a65.29,65.29,0,0,1,14.85.48c.47.07.68-.66.2-.73a65.9,65.9,0,0,0-15-.5c-.48,0-.48.79,0,.75Z" fill="#778886"/><path d="M117.59,101.07a34.28,34.28,0,0,1,14.67,3.56c.43.21.81-.43.38-.65a35.28,35.28,0,0,0-15-3.66.38.38,0,0,0,0,.75Z" fill="#778886"/><path d="M117.93,57.69a155.74,155.74,0,0,1,14.73-16.4c.58-.56-.31-1.44-.89-.88a155.76,155.76,0,0,0-14.72,16.4c-.49.62.39,1.51.88.88Z" fill="#778886"/><path d="M118,45.61a61.29,61.29,0,0,1,9.82-12.18c.58-.56-.31-1.44-.89-.89a63.45,63.45,0,0,0-10,12.44c-.42.69.66,1.31,1.08.63Z" fill="#778886"/><path d="M127,92a1.88,1.88,0,0,0,0-3.75A1.88,1.88,0,0,0,127,92Z" fill="#778886"/><path d="M121.42,85.2a1.88,1.88,0,0,0,0-3.75,1.88,1.88,0,0,0,0,3.75Z" fill="#778886"/><path d="M129.09,81.79a1.88,1.88,0,0,0,0-3.75,1.88,1.88,0,0,0,0,3.75Z" fill="#778886"/><path d="M124.83,75a1.88,1.88,0,0,0,0-3.75,1.88,1.88,0,0,0,0,3.75Z" fill="#778886"/><path d="M122.7,64.31a1.88,1.88,0,0,0,0-3.75,1.88,1.88,0,0,0,0,3.75Z" fill="#778886"/><path d="M129.52,66.87a1.88,1.88,0,0,0,0-3.75,1.88,1.88,0,0,0,0,3.75Z" fill="#778886"/><path d="M125.32,56.83a1.88,1.88,0,0,0,0-3.75,1.88,1.88,0,0,0,0,3.75Z" fill="#778886"/><path d="M129.16,50.59a1.88,1.88,0,0,0,0-3.75,1.88,1.88,0,0,0,0,3.75Z" fill="#778886"/><path d="M128.72,159.69a110.64,110.64,0,0,1,7.85-10.81c.61-.74-.45-1.81-1.06-1.06a115.82,115.82,0,0,0-8.09,11.11c-.52.82.78,1.57,1.3.76Z" fill="#778886"/><path d="M135.41,163.25A75.16,75.16,0,0,1,141,152.42c.51-.82-.79-1.58-1.3-.76a78.53,78.53,0,0,0-5.78,11.2c-.37.88,1.08,1.27,1.45.39Z" fill="#778886"/><path d="M145,166.6a34.29,34.29,0,0,1,1.55-14c.3-.92-1.15-1.32-1.45-.4a35.53,35.53,0,0,0-1.6,14.41c.08,1,1.58,1,1.5,0Z" fill="#778886"/><path d="M158,167.37V153.13a.38.38,0,0,0-.75,0v14.24a.38.38,0,0,0,.75,0Z" fill="#778886"/><path d="M165.37,167a53.12,53.12,0,0,0-2.46-15.87.37.37,0,0,0-.72.2A52.75,52.75,0,0,1,164.62,167a.38.38,0,0,0,.75,0Z" fill="#778886"/><path d="M175.12,160.65a48.59,48.59,0,0,1-9.61-14c-.2-.44-.84-.06-.65.38a49,49,0,0,0,9.73,14.14.38.38,0,0,0,.53-.53Z" fill="#778886"/><path d="M172.74,140.37a83,83,0,0,0,9.3-3.46c.44-.2.06-.84-.38-.65a81.78,81.78,0,0,1-9.12,3.39.37.37,0,0,0,.2.72Z" fill="#778886"/><path d="M182.2,136.25q-4.78-11.33-8.51-23c-.25-.77-1.45-.44-1.21.33q3.79,11.86,8.65,23.32c.31.74,1.39.1,1.07-.63Z" fill="#778886"/><path d="M181.81,136.72c1.34,0,2-1.07,2.86-1.9a10.19,10.19,0,0,1,5.52-2.61c.48-.07.28-.79-.2-.72a10.89,10.89,0,0,0-4.16,1.49,11,11,0,0,0-1.51,1.13c-.71.64-1.42,1.87-2.51,1.86a.38.38,0,0,0,0,.75Z" fill="#778886"/><path d="M181.29,136.88c.23,3.4,2.16,6.64,3.51,9.71.32.74,1.4.1,1.08-.63-1.26-2.86-3.13-5.92-3.34-9.08,0-.8-1.3-.81-1.25,0Z" fill="#778886"/><path d="M170.23,150.47a.63.63,0,0,0,0-1.25.63.63,0,0,0,0,1.25Z" fill="#778886"/><path d="M175.36,146.14a.63.63,0,0,0,0-1.25.63.63,0,0,0,0,1.25Z" fill="#778886"/><path d="M173.92,149.82a.63.63,0,0,0,0-1.25.63.63,0,0,0,0,1.25Z" fill="#778886"/><path d="M171.83,145.81a.63.63,0,0,0,0-1.25.63.63,0,0,0,0,1.25Z" fill="#778886"/><path d="M174.88,142.61a.63.63,0,0,0,0-1.25.63.63,0,0,0,0,1.25Z" fill="#778886"/><path d="M179.21,140.36a.63.63,0,0,0,0-1.25.63.63,0,0,0,0,1.25Z" fill="#778886"/><path d="M180.82,143.57a.63.63,0,0,0,0-1.25.63.63,0,0,0,0,1.25Z" fill="#778886"/><path d="M179.85,148.38a.63.63,0,0,0,0-1.25.63.63,0,0,0,0,1.25Z" fill="#778886"/><path d="M178.25,152.55a.63.63,0,0,0,0-1.25.63.63,0,0,0,0,1.25Z" fill="#778886"/><path d="M173.76,154.48a.63.63,0,0,0,0-1.25.63.63,0,0,0,0,1.25Z" fill="#778886"/><path d="M176.33,156.56a.63.63,0,0,0,0-1.25.63.63,0,0,0,0,1.25Z" fill="#778886"/><path d="M173,157.52a.63.63,0,0,0,0-1.25.63.63,0,0,0,0,1.25Z" fill="#778886"/><path d="M170.39,154.16a.63.63,0,0,0,0-1.25.63.63,0,0,0,0,1.25Z" fill="#778886"/><path d="M182.9,146.3a.63.63,0,0,0,0-1.25.63.63,0,0,0,0,1.25Z" fill="#778886"/><path d="M173.16,114.15a32.77,32.77,0,0,0,14-6.53c.38-.3-.15-.83-.53-.54A31.82,31.82,0,0,1,173,113.42c-.47.1-.27.82.2.73Z" fill="#778886"/><path d="M187.5,107.67a90.27,90.27,0,0,0-6.27-13.08C178.69,90.5,175,87.2,173,82.76c-.19-.44-.84-.06-.65.38,1.73,4,4.86,6.85,7.28,10.4,3,4.43,5.07,9.41,7.12,14.33.18.44.9.25.72-.2Z" fill="#778886"/><path d="M173.48,111.16c4.71-.15,7.86-4.11,12.17-5.45a.37.37,0,0,0-.2-.72c-4.21,1.31-7.4,5.27-12,5.42-.48,0-.48.77,0,.75Z" fill="#778886"/><path d="M173.21,106.75q5.46-2.53,10.7-5.47a.38.38,0,0,0-.38-.65q-5.25,2.93-10.7,5.48c-.43.2-.05.85.38.64Z" fill="#778886"/><path d="M173.25,102.47A27.46,27.46,0,0,0,181.46,96c.31-.36-.22-.89-.53-.53a27,27,0,0,1-8.06,6.31c-.43.22-.05.87.38.65Z" fill="#778886"/><path d="M173.51,97.39l6.9-3.36c.44-.21.06-.86-.38-.65l-6.9,3.36c-.44.21-.06.86.38.65Z" fill="#778886"/><path d="M172.19,92.54a28.24,28.24,0,0,1,4.48-2.76c.43-.22.05-.87-.38-.65a30.29,30.29,0,0,0-4.48,2.76c-.38.29,0,.94.38.65Z" fill="#778886"/><path d="M173.77,37.32h13.8a.38.38,0,0,0,0-.75h-13.8a.38.38,0,0,0,0,.75Z" fill="#778886"/><path d="M172.79,40.5l14.79.38a.38.38,0,0,0,0-.75l-14.79-.38a.38.38,0,0,0,0,.75Z" fill="#778886"/><path d="M171.14,44.58q8.38-.16,16.77.08a.38.38,0,0,0,0-.75q-8.39-.24-16.77-.08a.38.38,0,0,0,0,.75Z" fill="#778886"/><path d="M172.46,62.88a.63.63,0,0,0,0-1.25.63.63,0,0,0,0,1.25Z" fill="#778886"/><path d="M172.39,56.79a69.21,69.21,0,0,1,16,4.74c.44.19.82-.46.38-.65a70.83,70.83,0,0,0-16.19-4.82c-.47-.08-.67.65-.2.73Z" fill="#778886"/><path d="M182.32,55.91a1.88,1.88,0,0,0,0-3.75,1.88,1.88,0,0,0,0,3.75Z" fill="#778886"/><path d="M176.4,52.62a1.88,1.88,0,0,0,0-3.75,1.88,1.88,0,0,0,0,3.75Z" fill="#778886"/><path d="M182,48.68a1.88,1.88,0,0,0,0-3.75,1.88,1.88,0,0,0,0,3.75Z" fill="#778886"/><path d="M127,159.57a1.25,1.25,0,0,0,0-2.5,1.25,1.25,0,0,0,0,2.5Z" fill="#778886"/><path d="M172.6,117q5.67,15.41,11.83,30.61c.36.89,1.81.5,1.45-.4Q179.72,132,174.05,116.6c-.33-.9-1.78-.51-1.45.4Z" fill="#778886"/><path d="M16.68,90.33a1.25,1.25,0,0,0,0-2.5,1.25,1.25,0,0,0,0,2.5Z" fill="#778886"/><path d="M17.31,88.73c3.26,4,6.54,8,9.45,12.32,1.89,2.78,3.18,5.88,6.1,7.72.82.51,1.58-.79.76-1.3-3.45-2.17-5.51-7.21-7.94-10.46s-4.81-6.28-7.31-9.34c-.61-.75-1.66.31-1.06,1.06Z" fill="#778886"/><path d="M17.89,140.35c2.32,1,4,3.29,6.12,4.7a51.67,51.67,0,0,0,6.93,3.69c.86.41,1.63-.89.75-1.3a43.06,43.06,0,0,1-8-4.44c-1.85-1.41-3.26-3.19-5.44-4.1-.89-.37-1.28,1.08-.4,1.45Z" fill="#778886"/><path d="M73.9,48.91a46.85,46.85,0,0,1,13.39-1.56c1,0,1-1.47,0-1.5A48.22,48.22,0,0,0,73.5,47.47a.75.75,0,0,0,.4,1.44Z" fill="#778886"/><path d="M118.62,55.14c1.1-3.46,5-5.75,7.22-8.48,2.1-2.52,5.11-4.08,6.73-7,.47-.84-.82-1.6-1.29-.76-1.08,1.93-2.72,3.1-4.35,4.51-1.46,1.25-2.48,2.8-3.81,4.17-2.24,2.32-4.93,3.94-6,7.15-.29.92,1.16,1.32,1.45.4Z" fill="#778886"/><path d="M118.68,44.17c1-2.66,3.8-4,5.72-5.85s3.48-4.06,6-5.25c.87-.41.11-1.7-.76-1.29-2.85,1.34-4.54,3.91-6.81,6-2.1,1.92-4.56,3.22-5.58,6-.33.91,1.11,1.3,1.44.4Z" fill="#778886"/><path d="M237.88,165.51a61,61,0,0,1,5.57-13.72c.47-.84-.82-1.6-1.29-.75a61.56,61.56,0,0,0-5.72,14.08.75.75,0,0,0,1.44.39Z" fill="#778886"/><path d="M242.32,153.2a67.51,67.51,0,0,0,1.87,17.11c.23.94,1.67.54,1.45-.4a66.22,66.22,0,0,1-1.82-16.71.75.75,0,0,0-1.5,0Z" fill="#778886"/><path d="M243.1,153.52a125.21,125.21,0,0,1,16.33,14.8c.65.71,1.71-.36,1.06-1.07a128.13,128.13,0,0,0-16.63-15c-.77-.58-1.52.72-.76,1.3Z" fill="#778886"/><path d="M235.2,167a1.25,1.25,0,0,0,0-2.5,1.25,1.25,0,0,0,0,2.5Z" fill="#778886"/><path d="M235.73,165.92a1.25,1.25,0,0,0,0-2.5,1.25,1.25,0,0,0,0,2.5Z" fill="#778886"/><path d="M232,161.43a1.25,1.25,0,0,0,0-2.5,1.25,1.25,0,0,0,0,2.5Z" fill="#778886"/><path d="M232.51,156a1.25,1.25,0,0,0,0-2.5,1.25,1.25,0,0,0,0,2.5Z" fill="#778886"/><path d="M237.77,155.8a1.25,1.25,0,0,0,0-2.5,1.25,1.25,0,0,0,0,2.5Z" fill="#778886"/><path d="M231.42,149.63a1.25,1.25,0,0,0,0-2.5,1.25,1.25,0,0,0,0,2.5Z" fill="#778886"/><path d="M228,157.8a1.25,1.25,0,0,0,0-2.5,1.25,1.25,0,0,0,0,2.5Z" fill="#778886"/><path d="M227.06,151.45a1.25,1.25,0,0,0,0-2.5,1.25,1.25,0,0,0,0,2.5Z" fill="#778886"/><path d="M222.52,155.44a1.25,1.25,0,0,0,0-2.5,1.25,1.25,0,0,0,0,2.5Z" fill="#778886"/><path d="M221.44,148.54a1.25,1.25,0,0,0,0-2.5,1.25,1.25,0,0,0,0,2.5Z" fill="#778886"/><path d="M227.24,144.91a1.25,1.25,0,0,0,0-2.5,1.25,1.25,0,0,0,0,2.5Z" fill="#778886"/><path d="M216.53,143.46a1.25,1.25,0,0,0,0-2.5,1.25,1.25,0,0,0,0,2.5Z" fill="#778886"/><path d="M222.16,141.28a1.25,1.25,0,0,0,0-2.5,1.25,1.25,0,0,0,0,2.5Z" fill="#778886"/><path d="M226.7,137.47a1.25,1.25,0,0,0,0-2.5,1.25,1.25,0,0,0,0,2.5Z" fill="#778886"/><path d="M222.89,134.75a1.25,1.25,0,0,0,0-2.5,1.25,1.25,0,0,0,0,2.5Z" fill="#778886"/><path d="M217.08,137.29a1.25,1.25,0,0,0,0-2.5,1.25,1.25,0,0,0,0,2.5Z" fill="#778886"/><path d="M277.72,156.72V137.26a.38.38,0,0,0-.75,0v19.46a.38.38,0,0,0,.75,0Z" fill="#778886"/><path d="M277.54,136.86l8.68-10.2c.31-.36-.22-.9-.53-.53L277,136.33c-.31.36.22.9.53.53Z" fill="#778886"/><path d="M276.82,135.76l-5.45-.76c-.47-.06-.68.66-.2.73l5.45.75c.48.07.68-.65.2-.72Z" fill="#778886"/><path d="M281.25,131.7c.05,5.49,1.39,10.9,1.46,16.43a.38.38,0,0,0,.75,0c-.07-5.52-1.41-10.95-1.46-16.43a.38.38,0,0,0-.75,0Z" fill="#778886"/><path d="M269.3,123.64c-.26-6.4.78-12.77.5-19.13,0-.48-.77-.49-.75,0,.28,6.36-.76,12.73-.5,19.13,0,.48.77.48.75,0Z" fill="#778886"/><path d="M266.26,119.73a173.76,173.76,0,0,1,1.46-17.65c.06-.48-.69-.47-.75,0a173.76,173.76,0,0,0-1.46,17.65.38.38,0,0,0,.75,0Z" fill="#778886"/><path d="M262.78,116.65a167.11,167.11,0,0,1,1.46-16.72c.07-.48-.66-.68-.72-.2A168.18,168.18,0,0,0,262,116.65c0,.48.73.48.75,0Z" fill="#778886"/><path d="M259.45,113.77a69.5,69.5,0,0,1,.79-15.91c.08-.47-.64-.68-.72-.2a70.1,70.1,0,0,0-.82,16.11c0,.48.79.48.75,0Z" fill="#778886"/><path d="M255.54,112.33q.41-8.52,1.16-17c0-.48-.71-.48-.75,0q-.76,8.51-1.16,17c0,.49.73.48.75,0Z" fill="#778886"/><path d="M240.49,103.65q7.56-4.26,15-8.73a.63.63,0,0,0-.63-1.08q-7.44,4.48-15,8.73a.63.63,0,0,0,.63,1.08Z" fill="#778886"/><path d="M241.85,103.8c1.54-1.9,4-2.25,6-3.41,2.54-1.46,4.66-3.13,7.48-4.13.9-.32.52-1.77-.4-1.45-2.92,1-5.19,2.76-7.84,4.29-2.18,1.25-4.62,1.59-6.28,3.64-.6.74.46,1.81,1.06,1.06Z" fill="#778886"/><path d="M244.54,96.93a1.88,1.88,0,0,0,0-3.75,1.88,1.88,0,0,0,0,3.75Z" fill="#778886"/><path d="M236.35,96.56a1.88,1.88,0,0,0,0-3.75,1.88,1.88,0,0,0,0,3.75Z" fill="#778886"/><path d="M233.93,88.74a1.88,1.88,0,0,0,0-3.75,1.88,1.88,0,0,0,0,3.75Z" fill="#778886"/><path d="M227,90.79A1.88,1.88,0,0,0,227,87a1.88,1.88,0,0,0,0,3.75Z" fill="#778886"/><path d="M228.34,81.85a1.88,1.88,0,0,0,0-3.75,1.88,1.88,0,0,0,0,3.75Z" fill="#778886"/><path d="M218.1,84.08a1.88,1.88,0,0,0,0-3.75,1.88,1.88,0,0,0,0,3.75Z" fill="#778886"/><path d="M221.45,77a1.88,1.88,0,0,0,0-3.75,1.88,1.88,0,0,0,0,3.75Z" fill="#778886"/><path d="M230.39,97.3a1.88,1.88,0,0,0,0-3.75,1.88,1.88,0,0,0,0,3.75Z" fill="#778886"/><path d="M240.45,103.45a1.88,1.88,0,0,0,0-3.75,1.88,1.88,0,0,0,0,3.75Z" fill="#778886"/><path d="M211.59,71.44q7.46-2.31,15.08-4.06c.94-.22.54-1.67-.4-1.45q-7.62,1.75-15.08,4.06c-.92.28-.53,1.73.4,1.45Z" fill="#778886"/><path d="M265.91,60.29c5.66.27,11.12-3.5,16-5.89.72-.35.09-1.43-.63-1.08-4.71,2.29-10,6-15.41,5.72-.81,0-.81,1.21,0,1.25Z" fill="#778886"/><path d="M209.9,64.89a89.86,89.86,0,0,0,17.44-5.78c.44-.2.06-.84-.37-.65a89,89,0,0,1-17.27,5.71c-.48.1-.28.82.2.72Z" fill="#778886"/><path d="M263.18,53.7a62.47,62.47,0,0,0,16.2-4.47c.44-.19.06-.84-.38-.65A61.93,61.93,0,0,1,263,53c-.48.07-.28.79.2.73Z" fill="#778886"/><path d="M212.29,57.43c11.11-1.92,21.53-6.45,32.58-8.27,2-.33,3.89-1,5.9-1.51,3.09-.71,6.4-.3,9.54-.65,5.14-.58,10.23-1.85,15.3-2.88.47-.1.27-.82-.2-.73-5.86,1.2-11.81,2.79-17.8,3.09-5.09.26-9.42,1.32-14.44,2.12s-9.52,2.74-14.28,4.18A140,140,0,0,1,212.1,56.7c-.48.08-.28.81.19.73Z" fill="#778886"/><path d="M215.41,49.76c8.49-.39,15.54-5.34,23.71-7,9.37-1.93,18.87-2,28.24-4.33a.37.37,0,0,0-.19-.72c-8.83,2.24-17.67,2.62-26.59,4-8.74,1.39-16.21,6.87-25.17,7.28-.48,0-.48.77,0,.75Z" fill="#778886"/><path d="M223.09,41.5c11.82-4,23.85-6.11,36.24-7.39.48,0,.48-.8,0-.75-12.44,1.29-24.56,3.35-36.44,7.42-.45.16-.26.88.2.72Z" fill="#778886"/><path d="M212.12,73.38q7.68-3.48,15.39-6.9c.88-.39.12-1.68-.76-1.29q-7.71,3.42-15.38,6.89c-.88.4-.12,1.69.75,1.3Z" fill="#778886"/><path d="M267.45,60.41c2.27-.07,4.3-1.21,6.36-2.08l7.24-3c.88-.37.49-1.82-.4-1.44l-6.27,2.63c-2.13.89-4.59,2.36-6.93,2.43-1,0-1,1.53,0,1.5Z" fill="#778886"/><path d="M312.07,131.66a148.45,148.45,0,0,0,15.64,13.79c.76.58,1.51-.72.75-1.3a146,146,0,0,1-15.33-13.55c-.68-.69-1.74.38-1.06,1.06Z" fill="#778886"/><path d="M337.4,151.62c5.2,7.42,14.66,9.65,20.35,16.55.61.75,1.67-.32,1.06-1.06-5.6-6.8-15-9-20.11-16.25-.55-.79-1.85,0-1.3.76Z" fill="#778886"/><path d="M358.27,168a94.56,94.56,0,0,0,17-15.78c.62-.74-.44-1.8-1.06-1.06a93.2,93.2,0,0,1-16.7,15.54c-.78.56,0,1.87.76,1.3Z" fill="#778886"/><path d="M331.18,106.6Q320.74,97,311.05,86.66c-.66-.71-1.72.35-1.06,1.06q9.69,10.34,20.13,19.94c.71.65,1.77-.41,1.06-1.06Z" fill="#778886"/><path d="M313,141.42l4.74-4.59c.35-.33-.19-.86-.53-.53l-4.74,4.59c-.35.33.18.86.53.53Z" fill="#778886"/><path d="M312.82,147c2.17-3.42,6.6-4.46,8.63-8a.38.38,0,0,0-.65-.38c-2,3.55-6.45,4.61-8.63,8-.26.41.39.79.65.38Z" fill="#778886"/><path d="M312.43,152.85c3.07-4.83,8.81-6.59,13.05-10.14.37-.31-.16-.84-.53-.53-4.32,3.61-10,5.37-13.16,10.29-.26.41.38.79.64.38Z" fill="#778886"/><path d="M312.13,159c2-4.85,9.8-7.81,14.33-9.47.45-.16.25-.89-.2-.72-5,1.83-12.63,4.68-14.85,10-.19.45.54.64.72.2Z" fill="#778886"/><path d="M311.41,166q8.5-6.65,16.33-14.07c.35-.33-.18-.86-.53-.53q-7.83,7.43-16.33,14.07c-.38.3.15.82.53.53Z" fill="#778886"/><path d="M318.71,167.44c1.05-3.25,4.25-5.12,6.6-7.37a52.88,52.88,0,0,0,5.8-6.62c.29-.39-.36-.76-.65-.38a52.94,52.94,0,0,1-7.84,8.41c-1.95,1.7-3.82,3.23-4.63,5.76-.15.46.58.66.72.2Z" fill="#778886"/><path d="M326.34,167.52A125.38,125.38,0,0,1,338.06,153c.33-.36-.2-.89-.53-.53a125.78,125.78,0,0,0-11.83,14.72c-.28.4.37.78.64.38Z" fill="#778886"/><path d="M333.54,168.42c2.44-4.9,6.67-8.61,8.94-13.61.2-.44-.45-.82-.65-.38-2.27,5-6.49,8.71-8.93,13.61-.22.43.43.81.64.38Z" fill="#778886"/><path d="M340.79,167.58q3.45-3.75,6.56-7.79c.3-.38-.35-.76-.64-.38q-3.06,4-6.45,7.64c-.33.35.2.88.53.53Z" fill="#778886"/><path d="M347.46,168a15,15,0,0,0,2.27-2.55,14.53,14.53,0,0,1,3.11-2.58.37.37,0,0,0-.38-.64,15.48,15.48,0,0,0-2.79,2.19c-.89.89-1.55,2.21-2.59,2.93-.4.27,0,.92.38.65Z" fill="#778886"/><path d="M348.75,154.3c2.52,1.71,4.61,4,7.14,5.67a27.91,27.91,0,0,0,3,1.53c1.5.77,1.94,2,3.28,2.63.44.21.82-.44.38-.64-1-.45-1.4-1.79-2.41-2.31a37.84,37.84,0,0,1-3.85-1.86c-2.54-1.68-4.62-3.95-7.14-5.67-.4-.27-.77.38-.38.65Z" fill="#778886"/><path d="M356.59,153.21a24.81,24.81,0,0,1,4.81,4.21c1.34,1.32,3.27,2,4.92,2.87.43.22.81-.42.38-.64-2-1.05-4-1.91-5.56-3.65a17.92,17.92,0,0,0-4.17-3.44.38.38,0,0,0-.38.65Z" fill="#778886"/><path d="M364.9,153.71c.9,1.81,2.66,2.82,4.38,3.74.42.23.8-.41.37-.64-1.6-.86-3.26-1.79-4.1-3.48-.22-.43-.87-.05-.65.38Z" fill="#778886"/><path d="M342.5,92l.2,15.22a.38.38,0,0,0,.75,0L343.25,92a.38.38,0,0,0-.75,0Z" fill="#778886"/><path d="M346.72,92.18v15.68a.38.38,0,0,0,.75,0V92.18a.38.38,0,0,0-.75,0Z" fill="#778886"/><path d="M351.17,92.64,351,106.48a.38.38,0,0,0,.75,0l.22-13.84a.38.38,0,0,0-.75,0Z" fill="#778886"/><path d="M322,135.33a1.88,1.88,0,0,0,0-3.75,1.88,1.88,0,0,0,0,3.75Z" fill="#778886"/><path d="M316.88,129.34a1.88,1.88,0,0,0,0-3.75,1.88,1.88,0,0,0,0,3.75Z" fill="#778886"/><path d="M324.72,126.57a1.88,1.88,0,0,0,0-3.75,1.88,1.88,0,0,0,0,3.75Z" fill="#778886"/><path d="M319.19,120.11a1.88,1.88,0,0,0,0-3.75,1.88,1.88,0,0,0,0,3.75Z" fill="#778886"/><path d="M313.89,113.89a1.88,1.88,0,0,0,0-3.75,1.88,1.88,0,0,0,0,3.75Z" fill="#778886"/><path d="M320.8,111.35a1.88,1.88,0,0,0,0-3.75,1.88,1.88,0,0,0,0,3.75Z" fill="#778886"/><path d="M316.88,102.82a1.88,1.88,0,0,0,0-3.75,1.88,1.88,0,0,0,0,3.75Z" fill="#778886"/><path d="M317.69,93.1q4.55-4.6,9.31-9c.36-.33-.17-.85-.53-.53q-4.75,4.4-9.32,9c-.33.34.2.87.54.53Z" fill="#778886"/><path d="M311.67,65.88a79,79,0,0,1,15.21,8.76c.39.29.76-.36.38-.65A78.24,78.24,0,0,0,312,65.24c-.43-.2-.82.45-.37.64Z" fill="#778886"/><path d="M312.38,60.26c2.08,1.81,4.19,3.62,6.41,5.27s5,2,7,3.91c.35.33.88-.2.53-.53-1.85-1.74-3.65-1.89-5.81-3.1-2.75-1.54-5.23-4-7.61-6.09-.36-.31-.89.22-.53.54Z" fill="#778886"/><path d="M311.67,53.83c4.6,4.42,9.24,9.5,15.16,12.14.43.2.82-.45.38-.65-5.86-2.61-10.45-7.64-15-12-.35-.34-.88.19-.53.53Z" fill="#778886"/><path d="M312.27,48.56c4.81,4.33,10.29,8.43,14.5,13.34.32.36.85-.17.53-.53-4.21-4.91-9.69-9-14.49-13.34-.36-.32-.89.21-.54.53Z" fill="#778886"/><path d="M334.25,47.23a83.58,83.58,0,0,1,11-13.76c.68-.69-.38-1.75-1.06-1.06A85,85,0,0,0,333,46.48c-.52.81.78,1.57,1.3.75Z" fill="#778886"/><path d="M340.44,45.22a.63.63,0,0,0,0-1.25.63.63,0,0,0,0,1.25Z" fill="#778886"/><path d="M340.72,41.24a.63.63,0,0,0,0-1.25.63.63,0,0,0,0,1.25Z" fill="#778886"/><path d="M345.84,43.8a.63.63,0,0,0,0-1.25.63.63,0,0,0,0,1.25Z" fill="#778886"/><path d="M345.84,39.26a.63.63,0,0,0,0-1.25.63.63,0,0,0,0,1.25Z" fill="#778886"/><path d="M343.28,36.13a.63.63,0,0,0,0-1.25.63.63,0,0,0,0,1.25Z" fill="#778886"/><path d="M350.67,37a.63.63,0,0,0,0-1.25.63.63,0,0,0,0,1.25Z" fill="#778886"/><path d="M350.38,40.68a.63.63,0,0,0,0-1.25.63.63,0,0,0,0,1.25Z" fill="#778886"/><path d="M351.8,46.07a.63.63,0,0,0,0-1.25.63.63,0,0,0,0,1.25Z" fill="#778886"/><path d="M356.63,42.38a.63.63,0,0,0,0-1.25.63.63,0,0,0,0,1.25Z" fill="#778886"/><path d="M360.32,45.22a.63.63,0,0,0,0-1.25.63.63,0,0,0,0,1.25Z" fill="#778886"/><path d="M358.34,36.7a.63.63,0,0,0,0-1.25.63.63,0,0,0,0,1.25Z" fill="#778886"/><path d="M362.6,39.82a.63.63,0,0,0,0-1.25.63.63,0,0,0,0,1.25Z" fill="#778886"/><path d="M366.29,44.08a.63.63,0,0,0,0-1.25.63.63,0,0,0,0,1.25Z" fill="#778886"/><path d="M367.32,39.86a.63.63,0,0,0,0-1.25.63.63,0,0,0,0,1.25Z" fill="#778886"/><path d="M365.82,36.26a.63.63,0,0,0,0-1.25.63.63,0,0,0,0,1.25Z" fill="#778886"/><path d="M373.93,38.06a.63.63,0,0,0,0-1.25.63.63,0,0,0,0,1.25Z" fill="#778886"/><path d="M371.82,43.17a.63.63,0,0,0,0-1.25.63.63,0,0,0,0,1.25Z" fill="#778886"/><path d="M377.16,41.11a.63.63,0,0,0,0-1.25.63.63,0,0,0,0,1.25Z" fill="#778886"/><path d="M379.17,36a.63.63,0,0,0,0-1.25.63.63,0,0,0,0,1.25Z" fill="#778886"/><path d="M379.17,46a.63.63,0,0,0,0-1.25.63.63,0,0,0,0,1.25Z" fill="#778886"/><path d="M374.93,45.78a.63.63,0,0,0,0-1.25.63.63,0,0,0,0,1.25Z" fill="#778886"/><path d="M369.37,46.45a.63.63,0,0,0,0-1.25.63.63,0,0,0,0,1.25Z" fill="#778886"/><path d="M370.93,35.54a.63.63,0,0,0,0-1.25.63.63,0,0,0,0,1.25Z" fill="#778886"/><path d="M327.68,47.37c1.58-2.16,3.16-4.32,4.6-6.57A33,33,0,0,1,337,34.28c.69-.67-.37-1.73-1.07-1.06a28.39,28.39,0,0,0-4.46,6c-1.56,2.55-3.33,5-5.09,7.37-.57.78.73,1.53,1.29.76Z" fill="#778886"/><path d="M318.48,32.49c2.16,6.33,6.15,11.83,8.12,18.23.29.92,1.74.53,1.45-.4-2-6.4-6-11.89-8.13-18.23-.31-.91-1.76-.52-1.44.4Z" fill="#778886"/><path d="M424.44,142.23l13.75-9.13c.8-.53.05-1.83-.76-1.3l-13.75,9.14c-.8.53-.05,1.83.76,1.29Z" fill="#778886"/><path d="M423.63,131.62q7.46-.27,14.89.19c1,.06,1-1.44,0-1.5q-7.44-.47-14.89-.19c-1,0-1,1.54,0,1.5Z" fill="#778886"/><text/><path d="M427.66,164.5a1.25,1.25,0,0,0,0-2.5,1.25,1.25,0,0,0,0,2.5Z" fill="#778886"/><path d="M431.84,161.37a1.25,1.25,0,0,0,0-2.5,1.25,1.25,0,0,0,0,2.5Z" fill="#778886"/><path d="M434.52,166.15a1.25,1.25,0,0,0,0-2.5,1.25,1.25,0,0,0,0,2.5Z" fill="#778886"/><path d="M437.36,158.53a1.25,1.25,0,0,0,0-2.5,1.25,1.25,0,0,0,0,2.5Z" fill="#778886"/><path d="M432.43,155.1a1.25,1.25,0,0,0,0-2.5,1.25,1.25,0,0,0,0,2.5Z" fill="#778886"/><path d="M427.06,157.64a1.25,1.25,0,0,0,0-2.5,1.25,1.25,0,0,0,0,2.5Z" fill="#778886"/><path d="M425.12,151.07a1.25,1.25,0,0,0,0-2.5,1.25,1.25,0,0,0,0,2.5Z" fill="#778886"/><path d="M430.19,148.38a1.25,1.25,0,0,0,0-2.5,1.25,1.25,0,0,0,0,2.5Z" fill="#778886"/><path d="M436.76,149a1.25,1.25,0,0,0,0-2.5,1.25,1.25,0,0,0,0,2.5Z" fill="#778886"/><path d="M434.23,143.15a1.25,1.25,0,0,0,0-2.5,1.25,1.25,0,0,0,0,2.5Z" fill="#778886"/><path d="M427.21,142.26a1.25,1.25,0,0,0,0-2.5,1.25,1.25,0,0,0,0,2.5Z" fill="#778886"/><path d="M436,138.27a1.25,1.25,0,0,0,0-2.5,1.25,1.25,0,0,0,0,2.5Z" fill="#778886"/><path d="M425.24,117.75c1.41-4.3,5-7.78,7.57-11.41,2.72-3.8,5.27-7.71,7.71-11.7.5-.82-.79-1.58-1.3-.75-2.74,4.48-5.63,8.87-8.73,13.12-2.42,3.31-5.4,6.38-6.7,10.34-.3.92,1.15,1.31,1.45.4Z" fill="#778886"/><path d="M424.4,108.49q7.43-9.19,15.16-18.13c.31-.36-.22-.89-.53-.53q-7.74,8.94-15.16,18.13c-.3.38.23.91.53.53Z" fill="#778886"/><path d="M423.79,100c6.49-3.57,8.5-11.67,15-15.19.42-.23,0-.87-.38-.64-6.52,3.52-8.53,11.62-15,15.18-.42.24,0,.88.38.65Z" fill="#778886"/><path d="M423.07,93.94c1.68-3.87,5.25-7,8.08-10,2.65-2.88,5.17-6.25,8.6-8.22a.37.37,0,0,0-.38-.64c-3.51,2-6.05,5.39-8.75,8.33-2.89,3.15-6.47,6.2-8.2,10.18-.19.44.45.82.65.38Z" fill="#778886"/><path d="M423.58,83.84a109.55,109.55,0,0,1,15-12.23c.8-.53.05-1.83-.75-1.29a110.63,110.63,0,0,0-15.34,12.46c-.69.68.37,1.74,1.06,1.06Z" fill="#778886"/><path d="M404.24,34.1V48.39a.38.38,0,0,0,.75,0V34.1a.38.38,0,0,0-.75,0Z" fill="#778886"/><path d="M406.5,33.46c-.14,4.88-.09,9.75.12,14.62,0,.48.78.48.75,0-.21-4.87-.26-9.74-.12-14.62a.38.38,0,0,0-.75,0Z" fill="#778886"/><path d="M410.28,33.46V48.71a.38.38,0,0,0,.75,0V33.46a.38.38,0,0,0-.75,0Z" fill="#778886"/><path d="M414.72,33.78V48.07a.38.38,0,0,0,.75,0V33.78a.38.38,0,0,0-.75,0Z" fill="#778886"/><path d="M447,47.25c.08-3.12,2.11-5.73,3.66-8.31l4-6.63c.25-.41-.4-.79-.65-.38l-5.15,8.53c-1.31,2.18-2.55,4.18-2.62,6.79,0,.48.73.48.75,0Z" fill="#778886"/><path d="M452.18,32.5A150.2,150.2,0,0,0,460,50.44c.22.43.87.05.65-.38A148.85,148.85,0,0,1,452.9,32.3c-.16-.45-.89-.25-.72.2Z" fill="#778886"/><path d="M457.72,42.5l10.45-4.56c.44-.2.06-.84-.38-.65l-10.45,4.56c-.44.2-.06.84.38.65Z" fill="#778886"/><path d="M420.63,38.62a1.25,1.25,0,0,0,0-2.5,1.25,1.25,0,0,0,0,2.5Z" fill="#778886"/><path d="M424.59,42a1.25,1.25,0,0,0,0-2.5,1.25,1.25,0,0,0,0,2.5Z" fill="#778886"/><path d="M419,44.2a1.25,1.25,0,0,0,0-2.5,1.25,1.25,0,0,0,0,2.5Z" fill="#778886"/><path d="M425.13,47.62a1.25,1.25,0,0,0,0-2.5,1.25,1.25,0,0,0,0,2.5Z" fill="#778886"/><path d="M431.06,43.84a1.25,1.25,0,0,0,0-2.5,1.25,1.25,0,0,0,0,2.5Z" fill="#778886"/><path d="M430.34,37.9a1.25,1.25,0,0,0,0-2.5,1.25,1.25,0,0,0,0,2.5Z" fill="#778886"/><path d="M437.18,40.24a1.25,1.25,0,0,0,0-2.5,1.25,1.25,0,0,0,0,2.5Z" fill="#778886"/><path d="M443.29,37.19a1.25,1.25,0,0,0,0-2.5,1.25,1.25,0,0,0,0,2.5Z" fill="#778886"/><path d="M443.29,42.94a1.25,1.25,0,0,0,0-2.5,1.25,1.25,0,0,0,0,2.5Z" fill="#778886"/><path d="M449.05,40.06a1.25,1.25,0,0,0,0-2.5,1.25,1.25,0,0,0,0,2.5Z" fill="#778886"/><path d="M436.28,47.44a1.25,1.25,0,0,0,0-2.5,1.25,1.25,0,0,0,0,2.5Z" fill="#778886"/><path d="M430.88,52.29a1.25,1.25,0,0,0,0-2.5,1.25,1.25,0,0,0,0,2.5Z" fill="#778886"/><path d="M427.46,58.23a1.25,1.25,0,0,0,0-2.5,1.25,1.25,0,0,0,0,2.5Z" fill="#778886"/><path d="M425.48,63.9a46,46,0,0,1,13.91-8.4c.9-.35.51-1.8-.39-1.45a48.32,48.32,0,0,0-14.58,8.79c-.73.64.33,1.7,1.06,1.06Z" fill="#778886"/><path d="M26.74,99.59a30.11,30.11,0,0,1,4.3,7.08.38.38,0,0,0,.59.08c.66-.78.09-1.8-.36-2.58a.38.38,0,0,0-.65.38c.18.31.79,1.3.48,1.67l.59.07a31,31,0,0,0-4.42-7.23c-.31-.38-.84.16-.53.53Z" fill="#778886"/><path d="M28.21,99.35a.38.38,0,0,0,0-.75.38.38,0,0,0,0,.75Z" fill="#778886"/><path d="M23.72,94.54a.38.38,0,0,0,0-.75.38.38,0,0,0,0,.75Z" fill="#778886"/><path d="M119.3,54.62a8,8,0,0,1,2.12-2.49c.81-.77,1.36-2,2.32-2.52a.63.63,0,0,0-.64-1.08c-1.09.66-1.66,1.84-2.56,2.71A9.13,9.13,0,0,0,118.22,54c-.32.73.75,1.37,1.08.63Z" fill="#778886"/><path d="M128.06,159.05c1.4-2,3.27-3.61,4.66-5.67s3.34-3.22,4.35-5.46c.39-.88-.91-1.64-1.3-.76-1,2.2-3,3.48-4.34,5.46s-3.26,3.64-4.66,5.67c-.55.8.75,1.55,1.29.76Z" fill="#778886"/><path d="M144,167.05a69.23,69.23,0,0,1,2.4-13.4c.28-.93-1.16-1.32-1.45-.4a71.67,71.67,0,0,0-2.45,13.8c-.1,1,1.4.95,1.5,0Z" fill="#778886"/><path d="M136.1,163.62c.55-4.3,3.2-8.1,5.27-11.81.47-.84-.82-1.6-1.29-.76-2.24,4-4.89,7.94-5.48,12.57-.12.95,1.38.94,1.5,0Z" fill="#778886"/><path d="M212.8,72.12a27.27,27.27,0,0,0,3.25-1.49c.85-.46.09-1.76-.76-1.29a24.42,24.42,0,0,1-2.89,1.33c-.89.34-.5,1.79.4,1.45Z" fill="#778886"/><path d="M277,136.55a6.62,6.62,0,0,0,0,.89c0,.48.8.48.75,0a6.62,6.62,0,0,1,0-.89c0-.48-.73-.48-.75,0Z" fill="#778886"/><path d="M276.38,136.4a6.66,6.66,0,0,0,1,.27c.47.09.67-.64.2-.73a6.3,6.3,0,0,1-1-.26c-.46-.16-.66.56-.2.72Z" fill="#778886"/><path d="M238.52,165.56a51.16,51.16,0,0,1,1.95-7.21c.68-1.79,2.2-3.45,2.45-5.35.13-.94-1.32-1.35-1.45-.39-.24,1.79-1.8,3.59-2.45,5.34a54.43,54.43,0,0,0-2,7.21c-.21.94,1.24,1.34,1.45.4Z" fill="#778886"/><path d="M242.54,153.67a70,70,0,0,0,1.77,14.41c.21.94,1.66.54,1.44-.4a68.12,68.12,0,0,1-1.71-14,.75.75,0,0,0-1.5,0Z" fill="#778886"/><path d="M261.52,166c-2.48-.51-4.54-2.79-6.45-4.33-.74-.6-1.81.45-1.06,1.06,2.11,1.71,4.36,4.15,7.11,4.72.94.19,1.35-1.25.4-1.45Z" fill="#778886"/></g></g></svg>
